Looper (2012) English TS XviD AC3 700Mb RipsTracker.Com


[CENTER][IMG]http://img23.binimage.org/9f/50/76/poster691.jpg[/IMG]
[CODE] 
http://www.imdb.com/title/tt1276104/



Plot: In 2072, when the mob wants to get rid of someone, the target is sent 30 years into the past, where a hired gun awaits. Someone like Joe, who one day learns the mob wants to 'close the loop' by transporting back Joe's future self.



Director:
Rian Johnson

Writer:
Rian Johnson

Stars:
Joseph Gordon-Levitt, Bruce Willis and Emily Blunt

Genres:
Action | Sci-Fi | Thriller

Country:
USA |China


Thanks : ADTRG



Format                                   : AVI
Format/Info                              : Audio Video Interleave
File size                                : 705 MiB
Duration                                 : 1h 49mn
Overall bit rate                         : 899 Kbps
Writing application                      : VirtualDubMod 1.5.10.2 (build 2540/release)
Writing library                          : VirtualDub build 32842/release

Video
ID                                       : 0
Format                                   : MPEG-4 Visual
Format profile                           : Simple@L3
Format settings, BVOP                    : No
Format settings, QPel                    : No
Format settings, GMC                     : No warppoints
Format settings, Matrix                  : Default (H.263)
Codec ID                                 : XVID
Codec ID/Hint                            : XviD
Duration                                 : 1h 49mn
Bit rate                                 : 762 Kbps
Width                                    : 720 pixels
Height                                   : 280 pixels
Display aspect ratio                     : 2.571
Frame rate                               : 25.000 fps
Color space                              : YUV
Chroma subsampling                       : 4:2:0
Bit depth                                : 8 bits
Scan type                                : Progressive
Compression mode                         : Lossy
Bits/(Pixel*Frame)                       : 0.151
Stream size                              : 597 MiB (85%)
Writing library                          : XviD 1.3.0.dev55

Audio
ID                                       : 1
Format                                   : AC-3
Format/Info                              : Audio Coding 3
Mode extension                           : CM (complete main)
Format settings, Endianness              : Big
Codec ID                                 : 2000
Duration                                 : 1h 49mn
Bit rate mode                            : Constant
Bit rate                                 : 128 Kbps
Channel(s)                               : 2 channels
Channel positions                        : Front: L R
Sampling rate                            : 48.0 KHz
Bit depth                                : 16 bits
Compression mode                         : Lossy
Stream size                              : 100 MiB (14%)
Alignment                                : Split accross interleaves
Interleave, duration                     : 40 ms (1.00 video frame)
Interleave, preload duration             : 500 ms[/CODE]




[/CENTER]